<mxfile host="Electron" modified="2025-04-10T19:52:50.715Z" agent="Mozilla/5.0 (Windows NT 10.0; Win64; x64) AppleWebKit/537.36 (KHTML, like Gecko) draw.io/24.6.1 Chrome/124.0.6367.207 Electron/30.0.6 Safari/537.36" etag="McE8ln6eY2FDK8qr5eco" version="24.6.1" type="device">
  <diagram name="Page-1" id="m8FsSWaCpyPg7UAgm5rh">
    <mxGraphModel dx="1183" dy="685" grid="1" gridSize="10" guides="1" tooltips="1" connect="1" arrows="1" fold="1" page="1" pageScale="1" pageWidth="827" pageHeight="1169" math="0" shadow="0">
      <root>
        <mxCell id="0" />
        <mxCell id="1" parent="0" />
        <mxCell id="fEPUuGZ8sBsM-hHpOr5j-14" style="edgeStyle=orthogonalEdgeStyle;rounded=0;orthogonalLoop=1;jettySize=auto;html=1;entryX=0.5;entryY=1;entryDx=0;entryDy=0;startArrow=none;startFill=0;endArrow=diamondThin;endFill=1;curved=0;" edge="1" parent="1" source="fEPUuGZ8sBsM-hHpOr5j-6" target="fEPUuGZ8sBsM-hHpOr5j-10">
          <mxGeometry relative="1" as="geometry" />
        </mxCell>
        <mxCell id="fEPUuGZ8sBsM-hHpOr5j-6" value="Planta" style="swimlane;fontStyle=1;align=center;verticalAlign=top;childLayout=stackLayout;horizontal=1;startSize=26;horizontalStack=0;resizeParent=1;resizeParentMax=0;resizeLast=0;collapsible=1;marginBottom=0;whiteSpace=wrap;html=1;" vertex="1" parent="1">
          <mxGeometry x="320" y="320" width="160" height="190" as="geometry" />
        </mxCell>
        <mxCell id="fEPUuGZ8sBsM-hHpOr5j-7" value="- id: int&lt;div&gt;&lt;u&gt;- contador: int&lt;/u&gt;&lt;br&gt;+ nombreCientifico: String&lt;/div&gt;&lt;div&gt;+ nombre: String:&lt;/div&gt;&lt;div&gt;+ paisOrigen: String;&lt;/div&gt;&lt;div&gt;+ FechaCompra: LocalDate&lt;/div&gt;" style="text;strokeColor=none;fillColor=none;align=left;verticalAlign=top;spacingLeft=4;spacingRight=4;overflow=hidden;rotatable=0;points=[[0,0.5],[1,0.5]];portConstraint=eastwest;whiteSpace=wrap;html=1;" vertex="1" parent="fEPUuGZ8sBsM-hHpOr5j-6">
          <mxGeometry y="26" width="160" height="104" as="geometry" />
        </mxCell>
        <mxCell id="fEPUuGZ8sBsM-hHpOr5j-8" value="" style="line;strokeWidth=1;fillColor=none;align=left;verticalAlign=middle;spacingTop=-1;spacingLeft=3;spacingRight=3;rotatable=0;labelPosition=right;points=[];portConstraint=eastwest;strokeColor=inherit;" vertex="1" parent="fEPUuGZ8sBsM-hHpOr5j-6">
          <mxGeometry y="130" width="160" height="8" as="geometry" />
        </mxCell>
        <mxCell id="fEPUuGZ8sBsM-hHpOr5j-9" value="+&amp;nbsp; getId()&lt;div&gt;+ getNombre&lt;/div&gt;&lt;div&gt;&lt;br&gt;&lt;div&gt;&lt;br&gt;&lt;/div&gt;&lt;/div&gt;" style="text;strokeColor=none;fillColor=none;align=left;verticalAlign=top;spacingLeft=4;spacingRight=4;overflow=hidden;rotatable=0;points=[[0,0.5],[1,0.5]];portConstraint=eastwest;whiteSpace=wrap;html=1;" vertex="1" parent="fEPUuGZ8sBsM-hHpOr5j-6">
          <mxGeometry y="138" width="160" height="52" as="geometry" />
        </mxCell>
        <mxCell id="fEPUuGZ8sBsM-hHpOr5j-10" value="Planta" style="swimlane;fontStyle=1;align=center;verticalAlign=top;childLayout=stackLayout;horizontal=1;startSize=26;horizontalStack=0;resizeParent=1;resizeParentMax=0;resizeLast=0;collapsible=1;marginBottom=0;whiteSpace=wrap;html=1;" vertex="1" parent="1">
          <mxGeometry x="320" y="120" width="160" height="120" as="geometry" />
        </mxCell>
        <mxCell id="fEPUuGZ8sBsM-hHpOr5j-11" value="+ plantas: List&amp;lt;Plantas&amp;gt;&lt;div&gt;&lt;br&gt;&lt;/div&gt;" style="text;strokeColor=none;fillColor=none;align=left;verticalAlign=top;spacingLeft=4;spacingRight=4;overflow=hidden;rotatable=0;points=[[0,0.5],[1,0.5]];portConstraint=eastwest;whiteSpace=wrap;html=1;" vertex="1" parent="fEPUuGZ8sBsM-hHpOr5j-10">
          <mxGeometry y="26" width="160" height="44" as="geometry" />
        </mxCell>
        <mxCell id="fEPUuGZ8sBsM-hHpOr5j-12" value="" style="line;strokeWidth=1;fillColor=none;align=left;verticalAlign=middle;spacingTop=-1;spacingLeft=3;spacingRight=3;rotatable=0;labelPosition=right;points=[];portConstraint=eastwest;strokeColor=inherit;" vertex="1" parent="fEPUuGZ8sBsM-hHpOr5j-10">
          <mxGeometry y="70" width="160" height="8" as="geometry" />
        </mxCell>
        <mxCell id="fEPUuGZ8sBsM-hHpOr5j-13" value="&lt;div&gt;&lt;div&gt;+ agregarPlanta(Planta)&lt;/div&gt;&lt;/div&gt;" style="text;strokeColor=none;fillColor=none;align=left;verticalAlign=top;spacingLeft=4;spacingRight=4;overflow=hidden;rotatable=0;points=[[0,0.5],[1,0.5]];portConstraint=eastwest;whiteSpace=wrap;html=1;" vertex="1" parent="fEPUuGZ8sBsM-hHpOr5j-10">
          <mxGeometry y="78" width="160" height="42" as="geometry" />
        </mxCell>
      </root>
    </mxGraphModel>
  </diagram>
</mxfile>
